<svg version="1.1" id="Ebene_1" xmlns="http://www.w3.org/2000/svg" x="0" y="0" viewBox="0 0 990.9 166.6" xml:space="preserve">
  <style>
    .st0 { fill: #fff; }
    .st1 { fill: #3b7f72; }
    .st3 { fill: #51bbaf; }
  </style>
  <g>
    <path class="st0" d="M196.8 20c3 3.5 4.6 8.9 4.6 16v26.1c0 2-.6 3.5-1.8 4.7s-2.8 1.7-4.8 1.7-3.7-.6-4.9-1.7c-1.2-1.1-1.8-2.7-1.8-4.7V36.8c0-4-.8-7-2.3-8.8s-3.9-2.8-7.2-2.8c-3.8 0-6.9 1.2-9.2 3.6-2.3 2.4-3.4 5.6-3.4 9.7v23.7c0 2-.6 3.5-1.8 4.7s-2.8 1.7-4.9 1.7-3.7-.6-4.8-1.7-1.8-2.7-1.8-4.7V21.1c0-1.8.6-3.3 1.8-4.5 1.2-1.1 2.8-1.7 4.9-1.7 1.8 0 3.3.5 4.5 1.7 1.2 1.1 1.8 2.5 1.8 4.3v2.9c1.8-2.9 4.1-5.1 7.1-6.7 3-1.6 6.3-2.3 10.1-2.3 6.2-.1 10.9 1.7 13.9 5.2z"/>
    <path class="st0" d="M260.7 16.6c1.2 1.1 1.8 2.7 1.8 4.6v41.2c0 1.8-.6 3.3-1.9 4.5-1.2 1.1-2.9 1.7-4.8 1.7s-3.4-.5-4.6-1.6-1.7-2.5-1.7-4.3V60c-1.6 2.8-3.8 5-6.6 6.5s-5.9 2.3-9.3 2.3c-12.7 0-19.1-7.1-19.1-21.4V21.2c0-1.9.6-3.4 1.8-4.6s2.8-1.7 4.8-1.7c2.1 0 3.7.6 4.9 1.7 1.2 1.1 1.8 2.7 1.8 4.6v26.2c0 3.7.7 6.4 2.2 8.2 1.5 1.8 3.8 2.7 7 2.7 3.7 0 6.6-1.2 8.9-3.7s3.3-5.7 3.3-9.7V21.2c0-1.9.6-3.4 1.8-4.6s2.8-1.7 4.8-1.7c2.1 0 3.7.6 4.9 1.7z"/>
    <path class="st0" d="M323.2 62.5c0 1.6-.6 3-1.8 4.2-1.2 1.2-2.6 1.9-4.2 1.9-1.8 0-3.3-.7-4.6-2.2l-15-16.6-15 16.6c-1.3 1.4-2.9 2.1-4.6 2.1-1.6 0-2.9-.6-4.1-1.8-1.2-1.2-1.8-2.6-1.8-4.1 0-1.6.6-3.1 1.9-4.3l15.5-16.9-14.6-15.9c-1.3-1.3-1.9-2.7-1.9-4.3 0-1.6.6-3 1.8-4.2 1.2-1.2 2.6-1.8 4.1-1.8 1.7 0 3.2.7 4.6 2.1l14.1 15.5 14.1-15.5c1.3-1.4 2.9-2.1 4.6-2.1 1.6 0 3 .6 4.2 1.8 1.2 1.2 1.8 2.6 1.8 4.2s-.6 3.1-1.9 4.3l-14.6 15.9 15.6 16.9c1.2 1.1 1.8 2.6 1.8 4.2z"/>
    <path class="st0" d="M365 63.4c0 1.7-.7 3-2.1 3.9-1.4.9-3.3 1.3-5.9 1.1l-2.9-.2c-11.9-.8-17.8-7.2-17.8-19.1V26H331c-1.9 0-3.4-.4-4.4-1.3s-1.5-2.1-1.5-3.7.5-2.9 1.5-3.7 2.5-1.3 4.4-1.3h5.3V6.3c0-1.9.6-3.4 1.8-4.6C339.3.6 341 0 343 0c2 0 3.6.6 4.8 1.7 1.2 1.1 1.8 2.6 1.8 4.6V16h9c1.9 0 3.4.4 4.4 1.3 1 .8 1.5 2.1 1.5 3.7s-.5 2.9-1.5 3.7c-1 .8-2.5 1.3-4.4 1.3h-9v24.1c0 5.2 2.4 8 7.2 8.4l2.9.2c3.5.2 5.3 1.8 5.3 4.7z"/>
  </g>
  <g>
    <path class="st1" d="M0 121.5V63.1C0 61.3 1.4 60 3.1 60h13.8c1.7 0 3.1 1.4 3.1 3.1v58.4H0z"/>
    <path class="st0" d="M67.2 74.1v18.4H49.1V74.1h18.1m14.1-14.2H46.4c-6.3 0-11.5 5.1-11.5 11.5v35.2h34.9c6.3 0 11.5-5.1 11.5-11.5V59.9z"/>
    <path class="st1" d="M116.2 45.1v58.4c0 1.7-1.4 3.1-3.1 3.1H99.3c-1.7 0-3.1-1.4-3.1-3.1V45.1h20z"/>
    <linearGradient id="SVGID_1_" gradientUnits="userSpaceOnUse" x1="208.6062" y1="181.6086" x2="212.9635" y2="185.9659" gradientTransform="scale(1 -1) rotate(45 438.49667492 -58.4307324)">
      <stop offset="0" stop-opacity="0"/>
      <stop offset="1" stop-opacity=".2"/>
    </linearGradient>
    <path fill="url(#SVGID_1_)" d="M116.2 45.1v6.1h-20v-6.1z"/>
    <path class="st3" d="M116.2 45.1H38c-1.7 0-3.1-1.4-3.1-3.1V28.2c0-1.7 1.4-3.1 3.1-3.1h75.1c1.7 0 3.1 1.4 3.1 3.1v16.9z"/>
    <linearGradient id="SVGID_2_" gradientUnits="userSpaceOnUse" x1="905.4422" y1="-513.8627" x2="909.8003" y2="-509.5048" gradientTransform="scale(-1 1) rotate(45 -311.803725 -1304.29130132)">
      <stop offset="0" stop-opacity="0"/>
      <stop offset="1" stop-opacity=".2"/>
    </linearGradient>
    <path fill="url(#SVGID_2_)" d="M0 121.5v-6.2h20v6.2z"/>
    <path class="st3" d="M0 121.5h78.2c1.7 0 3.1 1.4 3.1 3.1v13.8c0 1.7-1.4 3.1-3.1 3.1H3.1c-1.7 0-3.1-1.4-3.1-3.1v-16.9z"/>
  </g>
  <g>
    <g>
      <path class="st3" d="M165 163.3c-3.9-2.2-7-5.3-9.1-9.3s-3.2-8.7-3.2-14.1 1.1-10.1 3.3-14.3c2.2-4.1 5.4-7.3 9.4-9.6s8.7-3.4 13.9-3.4c2.8 0 5.5.4 8.3 1.2 2.8.8 5.2 1.8 7.4 3.2 2.3 1.5 3.4 3.4 3.4 5.6 0 1.6-.4 2.8-1.1 3.8s-1.7 1.4-2.9 1.4c-.8 0-1.6-.2-2.4-.5s-1.7-.8-2.5-1.3c-1.6-.9-3-1.6-4.5-2.2-1.4-.5-3-.8-4.9-.8-4.4 0-7.8 1.4-10.1 4.3-2.4 2.9-3.6 7-3.6 12.4 0 5.3 1.2 9.4 3.6 12.3 2.4 2.9 5.8 4.3 10.1 4.3 1.8 0 3.3-.3 4.7-.8 1.4-.5 2.9-1.2 4.6-2.2 1.1-.6 2-1.1 2.8-1.4.8-.3 1.6-.5 2.3-.5 1.1 0 2.1.5 2.9 1.5.8 1 1.2 2.2 1.2 3.7 0 1.2-.3 2.2-.8 3.1-.5.9-1.4 1.7-2.6 2.4-2.2 1.4-4.7 2.5-7.6 3.3-2.9.8-5.9 1.2-8.9 1.2-5.2 0-9.8-1.1-13.7-3.3z"/>
      <path class="st3" d="M253.3 114.5c1.2 1.1 1.8 2.7 1.8 4.6v41.2c0 1.8-.6 3.3-1.9 4.5-1.2 1.1-2.9 1.7-4.8 1.7s-3.4-.5-4.6-1.6-1.7-2.5-1.7-4.4v-2.6c-1.6 2.8-3.8 5-6.6 6.5s-5.9 2.3-9.3 2.3c-12.7 0-19.1-7.1-19.1-21.4V119c0-1.9.6-3.4 1.8-4.6 1.2-1.1 2.8-1.7 4.8-1.7s3.7.6 4.9 1.7 1.8 2.7 1.8 4.6v26.2c0 3.7.7 6.4 2.2 8.2 1.5 1.8 3.8 2.7 7 2.7 3.7 0 6.6-1.2 8.9-3.7 2.2-2.4 3.3-5.7 3.3-9.7V119c0-1.9.6-3.4 1.8-4.6 1.2-1.1 2.8-1.7 4.8-1.7 2 .1 3.7.6 4.9 1.8z"/>
      <path class="st3" d="M269 162c-2.3-1.3-3.4-3.2-3.4-5.7 0-1.4.4-2.6 1.2-3.4.8-.9 1.7-1.3 2.9-1.3s2.9.6 5 1.7c2.3 1.1 4.3 1.9 6.2 2.4 1.9.6 4.3.9 7.2.9 3 0 5.3-.5 7-1.5 1.7-1 2.5-2.4 2.5-4.1 0-1.2-.3-2.2-1-2.9-.7-.7-1.9-1.4-3.6-2-1.7-.6-4.4-1.3-7.9-2.1-6.3-1.3-10.8-3.1-13.5-5.4-2.7-2.3-4.1-5.6-4.1-9.7 0-3.1.9-5.9 2.8-8.4 1.8-2.5 4.4-4.5 7.6-5.8 3.2-1.4 6.9-2.1 11-2.1 3 0 5.8.4 8.6 1.1 2.8.7 5.2 1.8 7.4 3.2 2.3 1.4 3.4 3.3 3.4 5.6 0 1.4-.4 2.6-1.2 3.6-.8 1-1.7 1.4-2.9 1.4-.8 0-1.5-.2-2.3-.5-.7-.3-1.7-.8-2.8-1.4-2-1.1-3.8-1.9-5.3-2.4s-3.3-.8-5.5-.8c-2.6 0-4.7.5-6.2 1.6s-2.3 2.5-2.3 4.4c0 1.8.8 3.1 2.3 4 1.6.9 4.6 1.8 9 2.8 4.7 1 8.5 2.1 11.1 3.4 2.7 1.3 4.6 2.9 5.8 4.8 1.2 1.9 1.8 4.4 1.8 7.3 0 4.8-2 8.7-6 11.6-4 2.9-9.3 4.3-16 4.3-7.9 0-14.1-1.6-18.8-4.6z"/>
      <path class="st3" d="M352.1 161.3c0 1.7-.7 3-2.1 3.9-1.4.9-3.3 1.3-5.9 1.1l-2.9-.2c-11.9-.8-17.8-7.2-17.8-19.1v-23.1h-5.3c-1.9 0-3.4-.4-4.4-1.3s-1.5-2.1-1.5-3.7.5-2.9 1.5-3.7 2.5-1.3 4.4-1.3h5.3v-9.8c0-1.9.6-3.4 1.8-4.6 1.2-1.1 2.8-1.7 4.9-1.7 2 0 3.6.6 4.8 1.7 1.2 1.1 1.8 2.7 1.8 4.6v9.8h9c1.9 0 3.4.4 4.4 1.3s1.5 2.1 1.5 3.7-.5 2.9-1.5 3.7c-1 .8-2.5 1.3-4.4 1.3h-9V148c0 5.2 2.4 8 7.2 8.4l2.9.2c3.5.1 5.3 1.7 5.3 4.7z"/>
      <path class="st3" d="M368.7 163.3c-4-2.2-7.1-5.3-9.3-9.4-2.2-4.1-3.3-8.9-3.3-14.3s1.1-10.2 3.3-14.3c2.2-4.1 5.3-7.2 9.3-9.4s8.7-3.3 14-3.3 10 1.1 14 3.3 7.1 5.3 9.2 9.4c2.2 4.1 3.2 8.8 3.2 14.3 0 5.4-1.1 10.2-3.2 14.3-2.2 4.1-5.2 7.2-9.2 9.4-4 2.2-8.7 3.3-14 3.3s-10-1.1-14-3.3zm23.7-11.3c2.3-2.8 3.4-7 3.4-12.5 0-5.4-1.1-9.6-3.4-12.5s-5.5-4.3-9.8-4.3-7.5 1.4-9.8 4.3-3.5 7-3.5 12.5 1.1 9.7 3.4 12.5c2.3 2.8 5.5 4.2 9.8 4.2 4.3.1 7.6-1.3 9.9-4.2z"/>
      <path class="st3" d="M494.6 117.6c3 3.4 4.5 8.8 4.5 16.3V160c0 2.1-.6 3.6-1.9 4.7-1.2 1.1-2.8 1.6-4.8 1.6-1.9 0-3.5-.6-4.7-1.6-1.2-1.1-1.9-2.7-1.9-4.7v-26.1c0-3.9-.7-6.7-2.1-8.3-1.4-1.7-3.5-2.5-6.3-2.5-3.5 0-6.2 1.2-8.3 3.6-2 2.4-3.1 5.6-3.1 9.7V160c0 2.1-.6 3.6-1.9 4.7-1.2 1.1-2.8 1.6-4.7 1.6s-3.5-.6-4.8-1.6c-1.3-1.1-1.9-2.7-1.9-4.7v-26.1c0-3.9-.7-6.7-2.1-8.3-1.4-1.7-3.5-2.5-6.3-2.5-3.5 0-6.2 1.2-8.2 3.6-2 2.4-3 5.6-3 9.7V160c0 2.1-.6 3.6-1.9 4.7-1.3 1.1-2.9 1.6-4.8 1.6s-3.5-.6-4.7-1.6c-1.2-1.1-1.9-2.7-1.9-4.7v-41.1c0-2 .6-3.5 1.9-4.6 1.3-1.1 2.9-1.6 4.8-1.6 1.8 0 3.3.5 4.5 1.5 1.2 1 1.8 2.5 1.8 4.4v2.6c1.6-2.8 3.8-5 6.5-6.5s5.8-2.2 9.4-2.2c7.8 0 13 3.3 15.6 9.8 1.6-3 3.9-5.3 6.9-7.1 3-1.8 6.5-2.6 10.3-2.6 5.8-.1 10.1 1.6 13.1 5z"/>
      <path class="st3" d="M513.2 141.2c-1-.9-1.5-2.2-1.5-3.8 0-1.6.5-2.9 1.5-3.9s2.6-1.4 4.6-1.4h21.9c2 0 3.6.5 4.6 1.4 1 1 1.5 2.2 1.5 3.9 0 1.6-.5 2.9-1.5 3.8-1 .9-2.6 1.4-4.6 1.4h-21.9c-2 0-3.6-.5-4.6-1.4z"/>
      <path class="st3" d="M604.3 152.9c.7.9 1.1 2.2 1.1 3.7 0 2.2-1.3 4-3.9 5.5-2.4 1.3-5.1 2.4-8.2 3.2-3 .8-5.9 1.2-8.7 1.2-8.3 0-15-2.4-19.8-7.2-4.9-4.8-7.3-11.4-7.3-19.7 0-5.3 1.1-10 3.2-14.1s5.1-7.3 9-9.5 8.2-3.4 13.1-3.4c4.7 0 8.7 1 12.2 3.1s6.2 4.9 8.1 8.7c1.9 3.8 2.9 8.2 2.9 13.3 0 3-1.3 4.6-4 4.6h-31.3c.4 4.9 1.8 8.5 4.1 10.8 2.3 2.3 5.7 3.4 10.2 3.4 2.3 0 4.3-.3 6-.9 1.7-.6 3.7-1.3 5.9-2.3 2.1-1.1 3.7-1.7 4.7-1.7.9-.1 1.9.3 2.7 1.3zm-30-27.6c-2.2 2.3-3.5 5.5-3.9 9.8h24c-.1-4.3-1.2-7.6-3.2-9.8-2-2.2-4.7-3.3-8.3-3.3-3.5-.1-6.4 1-8.6 3.3z"/>
      <path class="st3" d="M618.5 164.7c-1.2-1.1-1.9-2.7-1.9-4.7V96.6c0-2 .6-3.6 1.9-4.7 1.2-1.1 2.8-1.6 4.7-1.6s3.5.5 4.8 1.6c1.3 1.1 1.9 2.6 1.9 4.7V160c0 2.1-.6 3.6-1.9 4.7-1.3 1.1-2.9 1.6-4.8 1.6-1.9.1-3.5-.5-4.7-1.6z"/>
      <path class="st3" d="M687.6 152.9c.7.9 1.1 2.2 1.1 3.7 0 2.2-1.3 4-3.9 5.5-2.4 1.3-5.1 2.4-8.2 3.2-3 .8-5.9 1.2-8.7 1.2-8.3 0-15-2.4-19.8-7.2-4.9-4.8-7.3-11.4-7.3-19.7 0-5.3 1.1-10 3.2-14.1s5.1-7.3 9-9.5 8.2-3.4 13.1-3.4c4.7 0 8.7 1 12.2 3.1s6.2 4.9 8.1 8.7c1.9 3.8 2.9 8.2 2.9 13.3 0 3-1.3 4.6-4 4.6H654c.4 4.9 1.8 8.5 4.1 10.8 2.3 2.3 5.7 3.4 10.2 3.4 2.3 0 4.3-.3 6-.9 1.7-.6 3.7-1.3 5.9-2.3 2.1-1.1 3.7-1.7 4.7-1.7 1-.1 1.9.3 2.7 1.3zm-30-27.6c-2.2 2.3-3.5 5.5-3.9 9.8h24c-.1-4.3-1.2-7.6-3.2-9.8-2-2.2-4.7-3.3-8.3-3.3-3.5-.1-6.4 1-8.6 3.3z"/>
      <path class="st3" d="M774.6 117.6c3 3.4 4.5 8.8 4.5 16.3V160c0 2.1-.6 3.6-1.9 4.7-1.2 1.1-2.8 1.6-4.8 1.6-1.9 0-3.5-.6-4.7-1.6-1.2-1.1-1.9-2.7-1.9-4.7v-26.1c0-3.9-.7-6.7-2.1-8.3-1.4-1.7-3.5-2.5-6.3-2.5-3.5 0-6.2 1.2-8.3 3.6-2 2.4-3.1 5.6-3.1 9.7V160c0 2.1-.6 3.6-1.9 4.7-1.2 1.1-2.8 1.6-4.7 1.6s-3.5-.6-4.8-1.6c-1.3-1.1-1.9-2.7-1.9-4.7v-26.1c0-3.9-.7-6.7-2.1-8.3-1.4-1.7-3.5-2.5-6.3-2.5-3.5 0-6.2 1.2-8.2 3.6-2 2.4-3 5.6-3 9.7V160c0 2.1-.6 3.6-1.9 4.7-1.3 1.1-2.9 1.6-4.8 1.6s-3.5-.6-4.7-1.6c-1.2-1.1-1.9-2.7-1.9-4.7v-41.1c0-2 .6-3.5 1.9-4.6 1.3-1.1 2.9-1.6 4.8-1.6 1.8 0 3.3.5 4.5 1.5 1.2 1 1.8 2.5 1.8 4.4v2.6c1.6-2.8 3.8-5 6.5-6.5s5.8-2.2 9.4-2.2c7.8 0 13 3.3 15.6 9.8 1.6-3 3.9-5.3 6.9-7.1 3-1.8 6.5-2.6 10.3-2.6 5.8-.1 10.1 1.6 13.1 5z"/>
      <path class="st3" d="M836.6 152.9c.7.9 1.1 2.2 1.1 3.7 0 2.2-1.3 4-3.9 5.5-2.4 1.3-5.1 2.4-8.2 3.2-3 .8-5.9 1.2-8.7 1.2-8.3 0-15-2.4-19.8-7.2-4.9-4.8-7.3-11.4-7.3-19.7 0-5.3 1.1-10 3.2-14.1s5.1-7.3 9-9.5 8.2-3.4 13.1-3.4c4.7 0 8.7 1 12.2 3.1s6.2 4.9 8.1 8.7c1.9 3.8 2.9 8.2 2.9 13.3 0 3-1.3 4.6-4 4.6H803c.4 4.9 1.8 8.5 4.1 10.8 2.3 2.3 5.7 3.4 10.2 3.4 2.3 0 4.3-.3 6-.9 1.7-.6 3.7-1.3 5.9-2.3 2.1-1.1 3.7-1.7 4.7-1.7 1-.1 1.9.3 2.7 1.3zm-30-27.6c-2.2 2.3-3.4 5.5-3.9 9.8h24c-.1-4.3-1.2-7.6-3.2-9.8-2-2.2-4.7-3.3-8.3-3.3-3.5-.1-6.4 1-8.6 3.3z"/>
      <path class="st3" d="M893 117.8c3 3.5 4.6 8.9 4.6 16V160c0 2-.6 3.5-1.8 4.7-1.2 1.1-2.8 1.7-4.8 1.7-2.1 0-3.7-.6-4.9-1.7-1.2-1.1-1.8-2.7-1.8-4.7v-25.4c0-4-.8-7-2.3-8.8s-3.9-2.8-7.2-2.8c-3.8 0-6.9 1.2-9.2 3.6s-3.4 5.6-3.4 9.7V160c0 2-.6 3.5-1.8 4.7-1.2 1.1-2.8 1.7-4.9 1.7s-3.7-.6-4.8-1.7c-1.2-1.1-1.8-2.7-1.8-4.7v-41.1c0-1.8.6-3.3 1.8-4.5 1.2-1.1 2.8-1.7 4.9-1.7 1.8 0 3.3.6 4.5 1.7s1.8 2.5 1.8 4.3v2.9c1.8-2.9 4.1-5.1 7.1-6.7 3-1.6 6.3-2.3 10.1-2.3 6.2-.1 10.8 1.7 13.9 5.2z"/>
      <path class="st3" d="M943.3 161.3c0 1.7-.7 3-2.1 3.9-1.4.9-3.3 1.3-5.9 1.1l-2.9-.2c-11.9-.8-17.8-7.2-17.8-19.1v-23.1h-5.3c-1.9 0-3.4-.4-4.4-1.3s-1.5-2.1-1.5-3.7.5-2.9 1.5-3.7 2.5-1.3 4.4-1.3h5.3v-9.8c0-1.9.6-3.4 1.8-4.6 1.2-1.1 2.8-1.7 4.9-1.7 2 0 3.6.6 4.8 1.7 1.2 1.1 1.8 2.7 1.8 4.6v9.8h9c1.9 0 3.4.4 4.4 1.3s1.5 2.1 1.5 3.7-.5 2.9-1.5 3.7c-1 .8-2.5 1.3-4.4 1.3h-9V148c0 5.2 2.4 8 7.2 8.4l2.9.2c3.5.1 5.3 1.7 5.3 4.7z"/>
      <path class="st3" d="M950.3 162c-2.3-1.3-3.4-3.2-3.4-5.7 0-1.4.4-2.6 1.2-3.4.8-.9 1.7-1.3 2.9-1.3s2.9.6 5 1.7c2.3 1.1 4.3 1.9 6.2 2.4 1.9.6 4.3.9 7.2.9 3 0 5.3-.5 6.9-1.5 1.7-1 2.5-2.4 2.5-4.1 0-1.2-.3-2.2-1-2.9-.7-.7-1.9-1.4-3.6-2-1.7-.6-4.4-1.3-7.9-2.1-6.3-1.3-10.8-3.1-13.5-5.4s-4.1-5.6-4.1-9.7c0-3.1.9-5.9 2.8-8.4 1.8-2.5 4.4-4.5 7.6-5.8 3.2-1.4 6.9-2.1 11-2.1 3 0 5.8.4 8.6 1.1 2.8.7 5.2 1.8 7.4 3.2 2.3 1.4 3.4 3.3 3.4 5.6 0 1.4-.4 2.6-1.2 3.6-.8 1-1.7 1.4-2.9 1.4-.8 0-1.5-.2-2.3-.5-.7-.3-1.7-.8-2.8-1.4-2.1-1.1-3.8-1.9-5.3-2.4s-3.3-.8-5.5-.8c-2.6 0-4.7.5-6.2 1.6s-2.3 2.5-2.3 4.4c0 1.8.8 3.1 2.3 4 1.6.9 4.6 1.8 9 2.8 4.7 1 8.4 2.1 11.1 3.4 2.7 1.3 4.6 2.9 5.8 4.8 1.2 1.9 1.8 4.4 1.8 7.3 0 4.8-2 8.7-6 11.6-4 2.9-9.3 4.3-16 4.3-7.8 0-14-1.6-18.7-4.6z"/>
    </g>
  </g>
</svg>
