<svg xmlns="http://www.w3.org/2000/svg" viewBox="0 0 1239 106"><style>.st1{fill:#2f495e}.st2{fill:#3b7f72}.st4{fill:#51bbaf}</style><g id="Ebene_1"><path class="st1" d="M191.25 35.66c3.04 3.54 4.56 8.88 4.56 16.02V77.8c0 1.98-.58 3.54-1.75 4.67s-2.78 1.7-4.83 1.7c-2.05 0-3.68-.57-4.88-1.7-1.2-1.13-1.8-2.69-1.8-4.67V52.43c0-4.03-.76-6.97-2.28-8.81-1.52-1.84-3.91-2.76-7.16-2.76-3.82 0-6.88 1.2-9.18 3.61s-3.45 5.62-3.45 9.66V77.8c0 1.98-.6 3.54-1.8 4.67-1.2 1.13-2.83 1.7-4.88 1.7s-3.66-.57-4.83-1.7-1.75-2.69-1.75-4.67V36.72c0-1.84.6-3.32 1.8-4.46 1.2-1.13 2.83-1.7 4.88-1.7 1.84 0 3.34.55 4.51 1.65 1.17 1.1 1.75 2.53 1.75 4.3v2.87c1.77-2.9 4.14-5.13 7.11-6.69 2.97-1.56 6.33-2.33 10.08-2.33 6.22 0 10.86 1.77 13.9 5.3zM255.14 32.27c1.2 1.13 1.8 2.65 1.8 4.56v41.18c0 1.84-.62 3.33-1.86 4.46-1.24 1.13-2.85 1.7-4.83 1.7-1.91 0-3.43-.53-4.56-1.59-1.13-1.06-1.7-2.51-1.7-4.35v-2.65c-1.63 2.83-3.82 5.01-6.58 6.53s-5.87 2.28-9.34 2.28c-12.74 0-19.1-7.14-19.1-21.44V36.83c0-1.91.6-3.43 1.8-4.56 1.2-1.13 2.79-1.7 4.78-1.7 2.05 0 3.68.57 4.88 1.7 1.2 1.13 1.8 2.65 1.8 4.56v26.21c0 3.68.74 6.4 2.23 8.17 1.49 1.77 3.82 2.65 7 2.65 3.68 0 6.63-1.22 8.86-3.66 2.23-2.44 3.34-5.68 3.34-9.71V36.83c0-1.91.6-3.43 1.8-4.56 1.2-1.13 2.79-1.7 4.78-1.7 2.07 0 3.7.57 4.9 1.7zM317.65 78.11c0 1.56-.6 2.96-1.8 4.19-1.2 1.24-2.62 1.86-4.25 1.86-1.77 0-3.29-.74-4.56-2.23l-14.96-16.56-14.96 16.56c-1.34 1.42-2.87 2.12-4.56 2.12-1.56 0-2.94-.6-4.14-1.8-1.2-1.2-1.8-2.58-1.8-4.14 0-1.63.64-3.08 1.91-4.35L284 56.89l-14.65-15.92c-1.27-1.27-1.91-2.72-1.91-4.35 0-1.63.6-3.02 1.8-4.19 1.2-1.17 2.58-1.75 4.14-1.75 1.7 0 3.22.71 4.56 2.12l14.11 15.49 14.11-15.49c1.34-1.41 2.87-2.12 4.56-2.12 1.63 0 3.02.58 4.19 1.75 1.17 1.17 1.75 2.56 1.75 4.19 0 1.63-.64 3.08-1.91 4.35L300.1 56.89l15.6 16.87c1.31 1.28 1.95 2.73 1.95 4.35zM359.46 79.07c0 1.7-.69 2.99-2.07 3.87-1.38.88-3.34 1.26-5.89 1.11l-2.87-.21c-11.89-.85-17.83-7.22-17.83-19.1V41.61h-5.31c-1.91 0-3.38-.42-4.4-1.27s-1.54-2.09-1.54-3.71c0-1.63.51-2.87 1.54-3.71s2.49-1.27 4.4-1.27h5.31v-9.76c0-1.91.6-3.43 1.8-4.56 1.2-1.13 2.83-1.7 4.88-1.7 1.98 0 3.57.57 4.78 1.7 1.2 1.13 1.8 2.65 1.8 4.56v9.76h9.02c1.91 0 3.38.42 4.4 1.27 1.02.85 1.54 2.09 1.54 3.71 0 1.63-.51 2.87-1.54 3.71-1.03.85-2.49 1.27-4.4 1.27h-9.02V65.7c0 5.24 2.4 8.03 7.22 8.38l2.87.21c3.54.22 5.31 1.81 5.31 4.78z"/><path class="st2" d="M0 87.61v-53.1c0-1.57 1.27-2.83 2.83-2.83h12.5c1.57 0 2.83 1.27 2.83 2.83v53.1H0z"/><path class="st1" d="M61.05 44.53v16.72H44.6V44.53h16.45M73.9 31.67H42.15c-5.75 0-10.41 4.66-10.41 10.41V74.1h31.75c5.75 0 10.41-4.66 10.41-10.41V31.67z"/><path class="st2" d="M105.59 18.17v53.11c0 1.57-1.27 2.83-2.83 2.83h-12.5c-1.57 0-2.83-1.27-2.83-2.83V18.17h18.16z"/><linearGradient id="SVGID_1_" gradientUnits="userSpaceOnUse" x1="547.932" y1="-228.755" x2="551.891" y2="-232.714" gradientTransform="rotate(-45.001 627.033 442.437)"><stop offset="0" stop-opacity="0"/><stop offset="1" stop-opacity=".2"/></linearGradient><path fill="url(#SVGID_1_)" d="M105.59 18.17v5.59H87.42v-5.59z"/><path class="st4" d="M105.59 18.17H34.55c-1.57 0-2.83-1.27-2.83-2.83V2.83c0-1.57 1.27-2.83 2.83-2.83h68.2c1.57 0 2.83 1.27 2.83 2.83v15.34z"/><linearGradient id="SVGID_2_" gradientUnits="userSpaceOnUse" x1="681.751" y1="1222.92" x2="685.71" y2="1218.961" gradientTransform="rotate(134.999 581.714 513.152)"><stop offset="0" stop-opacity="0"/><stop offset="1" stop-opacity=".2"/></linearGradient><path fill="url(#SVGID_2_)" d="M0 87.61v-5.6h18.17v5.6z"/><path class="st4" d="M0 87.6h71.07c1.57 0 2.83 1.27 2.83 2.83v12.5c0 1.57-1.27 2.83-2.83 2.83H2.83c-1.57 0-2.83-1.27-2.83-2.83V87.6z"/><g><path class="st4" d="M412.96 81.08c-3.93-2.19-6.95-5.31-9.07-9.34s-3.18-8.74-3.18-14.11c0-5.38 1.11-10.14 3.34-14.27 2.23-4.14 5.36-7.34 9.39-9.6s8.67-3.4 13.9-3.4c2.76 0 5.54.39 8.33 1.17 2.79.78 5.25 1.84 7.38 3.18 2.26 1.49 3.4 3.36 3.4 5.62 0 1.56-.37 2.81-1.11 3.77-.74.96-1.72 1.43-2.92 1.43-.78 0-1.59-.18-2.44-.53-.85-.35-1.7-.78-2.55-1.27-1.56-.92-3.04-1.65-4.46-2.18-1.42-.53-3.04-.8-4.88-.8-4.39 0-7.77 1.43-10.14 4.3-2.37 2.87-3.56 6.99-3.56 12.36 0 5.31 1.18 9.39 3.56 12.26 2.37 2.87 5.75 4.3 10.14 4.3 1.77 0 3.34-.26 4.72-.8 1.38-.53 2.92-1.25 4.62-2.17 1.06-.64 1.98-1.12 2.76-1.43.78-.32 1.56-.48 2.33-.48 1.13 0 2.09.5 2.87 1.49.78.99 1.17 2.23 1.17 3.71 0 1.2-.27 2.25-.8 3.13-.53.89-1.4 1.68-2.6 2.39-2.19 1.42-4.74 2.53-7.64 3.34-2.9.81-5.87 1.22-8.91 1.22-5.18 0-9.73-1.09-13.65-3.29zM501.2 32.27c1.2 1.13 1.8 2.65 1.8 4.56v41.18c0 1.84-.62 3.33-1.86 4.46-1.24 1.13-2.85 1.7-4.83 1.7-1.91 0-3.43-.53-4.56-1.59-1.13-1.06-1.7-2.51-1.7-4.35v-2.65c-1.63 2.83-3.82 5.01-6.58 6.53s-5.87 2.28-9.34 2.28c-12.74 0-19.1-7.14-19.1-21.44V36.83c0-1.91.6-3.43 1.8-4.56 1.2-1.13 2.79-1.7 4.78-1.7 2.05 0 3.68.57 4.88 1.7 1.2 1.13 1.8 2.65 1.8 4.56v26.21c0 3.68.74 6.4 2.23 8.17 1.49 1.77 3.82 2.65 7 2.65 3.68 0 6.63-1.22 8.86-3.66 2.23-2.44 3.34-5.68 3.34-9.71V36.83c0-1.91.6-3.43 1.8-4.56 1.2-1.13 2.79-1.7 4.78-1.7 2.07 0 3.7.56 4.9 1.7zM516.91 79.81c-2.27-1.34-3.4-3.25-3.4-5.73 0-1.41.39-2.56 1.17-3.45.78-.88 1.73-1.33 2.87-1.33 1.2 0 2.87.57 4.99 1.7 2.26 1.06 4.33 1.88 6.21 2.44 1.87.57 4.26.85 7.16.85 2.97 0 5.29-.49 6.95-1.49 1.66-.99 2.49-2.37 2.49-4.14 0-1.2-.34-2.16-1.01-2.87-.67-.71-1.88-1.36-3.61-1.96-1.73-.6-4.37-1.29-7.91-2.07-6.3-1.27-10.81-3.08-13.53-5.41-2.72-2.33-4.09-5.55-4.09-9.66 0-3.11.92-5.92 2.76-8.44 1.84-2.51 4.37-4.46 7.59-5.84 3.22-1.38 6.88-2.07 10.98-2.07 2.97 0 5.84.37 8.6 1.11 2.76.74 5.23 1.82 7.43 3.24 2.26 1.42 3.4 3.29 3.4 5.62 0 1.42-.39 2.6-1.17 3.56-.78.96-1.73 1.43-2.87 1.43-.78 0-1.54-.16-2.28-.48-.74-.32-1.68-.8-2.81-1.43-2.05-1.06-3.82-1.86-5.31-2.39s-3.33-.8-5.52-.8c-2.62 0-4.69.53-6.21 1.59-1.52 1.06-2.28 2.51-2.28 4.35 0 1.77.78 3.11 2.33 4.03 1.56.92 4.56 1.84 9.02 2.76 4.74.99 8.45 2.12 11.14 3.4 2.69 1.27 4.62 2.87 5.78 4.78s1.75 4.35 1.75 7.32c0 4.81-2 8.67-6 11.57-4 2.9-9.32 4.35-15.97 4.35-7.69.02-13.91-1.5-18.65-4.54zM600 79.07c0 1.7-.69 2.99-2.07 3.87-1.38.88-3.34 1.26-5.89 1.11l-2.87-.21c-11.89-.85-17.83-7.22-17.83-19.1V41.6h-5.31c-1.91 0-3.38-.42-4.4-1.27s-1.54-2.09-1.54-3.71c0-1.63.51-2.87 1.54-3.71s2.49-1.27 4.4-1.27h5.31v-9.76c0-1.91.6-3.43 1.8-4.56 1.2-1.13 2.83-1.7 4.88-1.7 1.98 0 3.57.57 4.78 1.7 1.2 1.13 1.8 2.65 1.8 4.56v9.76h9.02c1.91 0 3.38.42 4.4 1.27 1.02.85 1.54 2.09 1.54 3.71 0 1.63-.51 2.87-1.54 3.71-1.03.85-2.49 1.27-4.4 1.27h-9.02v24.09c0 5.24 2.4 8.03 7.22 8.38l2.87.21c3.54.22 5.31 1.82 5.31 4.79zM616.61 81.08c-4-2.19-7.09-5.34-9.29-9.45-2.19-4.1-3.29-8.88-3.29-14.33 0-5.45 1.1-10.21 3.29-14.27 2.19-4.07 5.29-7.2 9.29-9.39 4-2.19 8.65-3.29 13.96-3.29s9.96 1.1 13.96 3.29 7.07 5.32 9.23 9.39S657 51.86 657 57.3c0 5.45-1.08 10.22-3.24 14.33-2.16 4.1-5.24 7.25-9.23 9.45-4 2.19-8.65 3.29-13.96 3.29s-9.96-1.09-13.96-3.29zm23.72-11.25c2.26-2.83 3.4-7 3.4-12.52 0-5.45-1.13-9.6-3.4-12.47-2.27-2.87-5.52-4.3-9.76-4.3s-7.52 1.43-9.82 4.3c-2.3 2.87-3.45 7.02-3.45 12.47 0 5.52 1.13 9.69 3.4 12.52 2.26 2.83 5.52 4.25 9.76 4.25 4.31 0 7.6-1.42 9.87-4.25zM742.58 35.4c3.01 3.36 4.51 8.79 4.51 16.29V77.8c0 2.05-.62 3.63-1.86 4.72-1.24 1.1-2.85 1.64-4.83 1.64-1.91 0-3.49-.55-4.72-1.64-1.24-1.1-1.86-2.67-1.86-4.72V51.69c0-3.89-.69-6.67-2.07-8.33-1.38-1.66-3.49-2.49-6.31-2.49-3.47 0-6.23 1.19-8.28 3.56-2.05 2.37-3.08 5.61-3.08 9.71v23.67c0 2.05-.62 3.63-1.86 4.72-1.24 1.1-2.81 1.64-4.72 1.64s-3.5-.55-4.78-1.64c-1.27-1.1-1.91-2.67-1.91-4.72V51.69c0-3.89-.69-6.67-2.07-8.33-1.38-1.66-3.49-2.49-6.31-2.49-3.47 0-6.21 1.19-8.22 3.56-2.02 2.37-3.02 5.61-3.02 9.71v23.67c0 2.05-.64 3.63-1.91 4.72-1.27 1.1-2.87 1.64-4.78 1.64-1.91 0-3.49-.55-4.72-1.64-1.24-1.1-1.86-2.67-1.86-4.72V36.72c0-1.98.64-3.5 1.91-4.56 1.27-1.06 2.87-1.59 4.78-1.59 1.84 0 3.34.51 4.51 1.54s1.75 2.49 1.75 4.4v2.55c1.63-2.83 3.8-4.99 6.53-6.47 2.72-1.49 5.85-2.23 9.39-2.23 7.78 0 12.98 3.26 15.6 9.76 1.56-2.97 3.86-5.34 6.9-7.11 3.04-1.77 6.47-2.65 10.29-2.65 5.66-.01 9.99 1.68 13 5.04zM761.15 59.01c-1.03-.92-1.54-2.19-1.54-3.82s.51-2.92 1.54-3.87c1.03-.96 2.56-1.43 4.62-1.43h21.86c2.05 0 3.59.48 4.62 1.43 1.02.96 1.54 2.25 1.54 3.87 0 1.63-.51 2.9-1.54 3.82-1.03.92-2.57 1.38-4.62 1.38h-21.86c-2.05 0-3.59-.46-4.62-1.38zM852.21 70.68c.74.92 1.11 2.16 1.11 3.71 0 2.19-1.31 4.03-3.93 5.52-2.41 1.34-5.13 2.42-8.17 3.24-3.04.81-5.94 1.22-8.7 1.22-8.35 0-14.96-2.4-19.85-7.22-4.88-4.81-7.32-11.39-7.32-19.74 0-5.31 1.06-10.01 3.18-14.11s5.11-7.29 8.97-9.55c3.86-2.26 8.22-3.4 13.11-3.4 4.67 0 8.74 1.03 12.2 3.08 3.47 2.05 6.16 4.95 8.07 8.7 1.91 3.75 2.87 8.17 2.87 13.27 0 3.04-1.35 4.56-4.03 4.56h-31.31c.42 4.88 1.8 8.47 4.14 10.77 2.33 2.3 5.73 3.45 10.19 3.45 2.26 0 4.26-.28 6-.85 1.73-.57 3.7-1.34 5.89-2.33 2.12-1.13 3.68-1.7 4.67-1.7 1.19 0 2.16.46 2.91 1.38zm-29.93-27.59c-2.16 2.27-3.45 5.52-3.87 9.76h23.99c-.14-4.31-1.2-7.59-3.18-9.82-1.98-2.23-4.74-3.34-8.28-3.34-3.62 0-6.5 1.14-8.66 3.4zM866.43 82.52c-1.24-1.1-1.86-2.67-1.86-4.72V14.44c0-2.05.62-3.61 1.86-4.67 1.24-1.06 2.81-1.59 4.72-1.59 1.91 0 3.5.53 4.78 1.59 1.27 1.06 1.91 2.62 1.91 4.67V77.8c0 2.05-.64 3.63-1.91 4.72-1.27 1.1-2.87 1.64-4.78 1.64-1.91 0-3.49-.55-4.72-1.64zM935.52 70.68c.74.92 1.11 2.16 1.11 3.71 0 2.19-1.31 4.03-3.93 5.52-2.41 1.34-5.13 2.42-8.17 3.24-3.04.81-5.94 1.22-8.7 1.22-8.35 0-14.96-2.4-19.85-7.22-4.88-4.81-7.32-11.39-7.32-19.74 0-5.31 1.06-10.01 3.18-14.11s5.11-7.29 8.97-9.55c3.86-2.26 8.22-3.4 13.11-3.4 4.67 0 8.74 1.03 12.2 3.08 3.47 2.05 6.16 4.95 8.07 8.7 1.91 3.75 2.87 8.17 2.87 13.27 0 3.04-1.35 4.56-4.03 4.56h-31.31c.42 4.88 1.8 8.47 4.14 10.77 2.33 2.3 5.73 3.45 10.19 3.45 2.26 0 4.26-.28 6-.85 1.73-.57 3.7-1.34 5.89-2.33 2.12-1.13 3.68-1.7 4.67-1.7 1.19 0 2.16.46 2.91 1.38zm-29.93-27.59c-2.16 2.27-3.45 5.52-3.87 9.76h23.99c-.14-4.31-1.2-7.59-3.18-9.82-1.98-2.23-4.74-3.34-8.28-3.34-3.62 0-6.51 1.14-8.66 3.4zM1022.54 35.4c3.01 3.36 4.51 8.79 4.51 16.29V77.8c0 2.05-.62 3.63-1.86 4.72-1.24 1.1-2.85 1.64-4.83 1.64-1.91 0-3.49-.55-4.72-1.64-1.24-1.1-1.86-2.67-1.86-4.72V51.69c0-3.89-.69-6.67-2.07-8.33-1.38-1.66-3.49-2.49-6.31-2.49-3.47 0-6.23 1.19-8.28 3.56-2.05 2.37-3.08 5.61-3.08 9.71v23.67c0 2.05-.62 3.63-1.86 4.72-1.24 1.1-2.81 1.64-4.72 1.64s-3.5-.55-4.78-1.64c-1.27-1.1-1.91-2.67-1.91-4.72V51.69c0-3.89-.69-6.67-2.07-8.33-1.38-1.66-3.49-2.49-6.31-2.49-3.47 0-6.21 1.19-8.22 3.56-2.02 2.37-3.02 5.61-3.02 9.71v23.67c0 2.05-.64 3.63-1.91 4.72-1.27 1.1-2.87 1.64-4.78 1.64-1.91 0-3.49-.55-4.72-1.64-1.24-1.1-1.86-2.67-1.86-4.72V36.72c0-1.98.64-3.5 1.91-4.56 1.27-1.06 2.87-1.59 4.78-1.59 1.84 0 3.34.51 4.51 1.54s1.75 2.49 1.75 4.4v2.55c1.63-2.83 3.8-4.99 6.53-6.47 2.72-1.49 5.85-2.23 9.39-2.23 7.78 0 12.98 3.26 15.6 9.76 1.56-2.97 3.86-5.34 6.9-7.11 3.04-1.77 6.47-2.65 10.29-2.65 5.66-.01 9.99 1.68 13 5.04zM1084.51 70.68c.74.92 1.11 2.16 1.11 3.71 0 2.19-1.31 4.03-3.93 5.52-2.41 1.34-5.13 2.42-8.17 3.24-3.04.81-5.94 1.22-8.7 1.22-8.35 0-14.96-2.4-19.85-7.22-4.88-4.81-7.32-11.39-7.32-19.74 0-5.31 1.06-10.01 3.18-14.11s5.11-7.29 8.97-9.55c3.86-2.26 8.22-3.4 13.11-3.4 4.67 0 8.74 1.03 12.2 3.08 3.47 2.05 6.16 4.95 8.07 8.7 1.91 3.75 2.87 8.17 2.87 13.27 0 3.04-1.35 4.56-4.03 4.56h-31.31c.42 4.88 1.8 8.47 4.14 10.77 2.33 2.3 5.73 3.45 10.19 3.45 2.26 0 4.26-.28 6-.85 1.73-.57 3.7-1.34 5.89-2.33 2.12-1.13 3.68-1.7 4.67-1.7 1.2 0 2.17.46 2.91 1.38zm-29.92-27.59c-2.16 2.27-3.45 5.52-3.87 9.76h23.99c-.14-4.31-1.2-7.59-3.18-9.82-1.98-2.23-4.74-3.34-8.28-3.34-3.62 0-6.51 1.14-8.66 3.4zM1140.92 35.66c3.04 3.54 4.56 8.88 4.56 16.02v26.11c0 1.98-.58 3.54-1.75 4.67s-2.78 1.7-4.83 1.7c-2.05 0-3.68-.57-4.88-1.7-1.2-1.13-1.8-2.69-1.8-4.67V52.43c0-4.03-.76-6.97-2.28-8.81-1.52-1.84-3.91-2.76-7.16-2.76-3.82 0-6.88 1.2-9.18 3.61s-3.45 5.62-3.45 9.66V77.8c0 1.98-.6 3.54-1.8 4.67s-2.83 1.7-4.88 1.7-3.66-.57-4.83-1.7-1.75-2.69-1.75-4.67V36.72c0-1.84.6-3.32 1.8-4.46 1.2-1.13 2.83-1.7 4.88-1.7 1.84 0 3.34.55 4.51 1.65 1.17 1.1 1.75 2.53 1.75 4.3v2.87c1.77-2.9 4.14-5.13 7.11-6.69 2.97-1.56 6.33-2.33 10.08-2.33 6.22-.01 10.86 1.76 13.9 5.3zM1191.22 79.07c0 1.7-.69 2.99-2.07 3.87-1.38.88-3.34 1.26-5.89 1.11l-2.87-.21c-11.89-.85-17.83-7.22-17.83-19.1V41.6h-5.31c-1.91 0-3.38-.42-4.4-1.27s-1.54-2.09-1.54-3.71c0-1.63.51-2.87 1.54-3.71s2.49-1.27 4.4-1.27h5.31v-9.76c0-1.91.6-3.43 1.8-4.56 1.2-1.13 2.83-1.7 4.88-1.7 1.98 0 3.57.57 4.78 1.7 1.2 1.13 1.8 2.65 1.8 4.56v9.76h9.02c1.91 0 3.38.42 4.4 1.27 1.02.85 1.54 2.09 1.54 3.71 0 1.63-.51 2.87-1.54 3.71-1.03.85-2.49 1.27-4.4 1.27h-9.02v24.09c0 5.24 2.4 8.03 7.22 8.38l2.87.21c3.54.22 5.31 1.82 5.31 4.79zM1198.22 79.81c-2.26-1.34-3.4-3.25-3.4-5.73 0-1.41.39-2.56 1.17-3.45.78-.88 1.73-1.33 2.87-1.33 1.2 0 2.87.57 4.99 1.7 2.26 1.06 4.33 1.88 6.21 2.44 1.87.57 4.26.85 7.16.85 2.97 0 5.29-.49 6.95-1.49 1.66-.99 2.49-2.37 2.49-4.14 0-1.2-.34-2.16-1.01-2.87-.67-.71-1.88-1.36-3.61-1.96-1.74-.6-4.37-1.29-7.91-2.07-6.3-1.27-10.81-3.08-13.53-5.41-2.72-2.33-4.09-5.55-4.09-9.66 0-3.11.92-5.92 2.76-8.44 1.84-2.51 4.37-4.46 7.59-5.84 3.22-1.38 6.88-2.07 10.98-2.07 2.97 0 5.84.37 8.6 1.11 2.76.74 5.24 1.82 7.43 3.24 2.26 1.42 3.4 3.29 3.4 5.62 0 1.42-.39 2.6-1.17 3.56-.78.96-1.73 1.43-2.87 1.43-.78 0-1.54-.16-2.28-.48s-1.68-.8-2.81-1.43c-2.05-1.06-3.82-1.86-5.31-2.39-1.49-.53-3.33-.8-5.52-.8-2.62 0-4.69.53-6.21 1.59-1.52 1.06-2.28 2.51-2.28 4.35 0 1.77.78 3.11 2.33 4.03 1.55.92 4.56 1.84 9.02 2.76 4.74.99 8.45 2.12 11.14 3.4 2.69 1.27 4.62 2.87 5.78 4.78 1.17 1.91 1.75 4.35 1.75 7.32 0 4.81-2 8.67-6 11.57-4 2.9-9.32 4.35-15.97 4.35-7.68.02-13.91-1.5-18.65-4.54z"/></g></g></svg>
